<svg xmlns="http://www.w3.org/2000/svg" xmlns:xlink="http://www.w3.org/1999/xlink" width="1024" zoomAndPan="magnify" viewBox="0 0 768 767.999994" height="1024" preserveAspectRatio="xMidYMid meet" version="1.0"><defs><clipPath id="00b6a7a63a"><path d="M 0 168.75 L 0 599.25 C 0 692.449219 75.550781 768 168.75 768 L 599.25 768 C 692.449219 768 768 692.449219 768 599.25 L 768 168.75 C 768 75.550781 692.449219 0 599.25 0 L 168.75 0 C 75.550781 0 0 75.550781 0 168.75 Z M 0 168.75 " clip-rule="nonzero"/></clipPath><clipPath id="a9ccb684a5"><path d="M 76.800781 0 L 328.53125 0 L 328.53125 670.339844 L 76.800781 670.339844 Z M 76.800781 0 " clip-rule="nonzero"/></clipPath><clipPath id="9fc4726fa2"><path d="M 0 168.75 L 0 599.25 C 0 692.449219 75.550781 768 168.75 768 L 599.25 768 C 692.449219 768 768 692.449219 768 599.25 L 768 168.75 C 768 75.550781 692.449219 0 599.25 0 L 168.75 0 C 75.550781 0 0 75.550781 0 168.75 Z M 0 168.75 " clip-rule="nonzero"/></clipPath><clipPath id="0b406e11d3"><path d="M 328.53125 -152.304688 L 328.53125 655.644531 C 328.53125 661.5 324.972656 666.765625 319.546875 668.960938 C 314.117188 671.152344 307.902344 669.828125 303.835938 665.613281 L 227.355469 586.375 C 220.890625 579.671875 211.976562 575.890625 202.664062 575.890625 C 193.351562 575.890625 184.441406 579.671875 177.972656 586.375 L 101.492188 665.613281 C 97.425781 669.828125 91.210938 671.152344 85.78125 668.960938 C 80.355469 666.765625 76.800781 661.5 76.800781 655.644531 L 76.800781 -153.445312 C 76.800781 -190.996094 91.902344 -221.089844 109.527344 -221.089844 L 295.804688 -221.089844 C 313.425781 -221.089844 328.53125 -192.667969 328.53125 -151.164062 Z M 328.53125 -152.304688 " clip-rule="nonzero"/></clipPath><clipPath id="420eb6e457"><path d="M 328.53125 -152.304688 L 328.53125 655.644531 C 328.53125 661.5 324.972656 666.765625 319.546875 668.960938 C 314.117188 671.152344 307.902344 669.828125 303.835938 665.613281 L 227.355469 586.375 C 220.890625 579.671875 211.976562 575.890625 202.664062 575.890625 C 193.351562 575.890625 184.441406 579.671875 177.972656 586.375 L 101.492188 665.613281 C 97.425781 669.828125 91.210938 671.152344 85.78125 668.960938 C 80.355469 666.765625 76.800781 661.5 76.800781 655.644531 L 76.800781 -153.445312 C 76.800781 -190.996094 91.902344 -221.089844 109.527344 -221.089844 L 295.804688 -221.089844 C 313.425781 -221.089844 328.53125 -192.667969 328.53125 -151.164062 Z M 328.53125 -152.304688 " clip-rule="nonzero"/></clipPath><clipPath id="d85ace9eb7"><path d="M 388 268 L 706 268 L 706 714 L 388 714 Z M 388 268 " clip-rule="nonzero"/></clipPath><clipPath id="c93a32ea14"><path d="M 0 168.75 L 0 599.25 C 0 692.449219 75.550781 768 168.75 768 L 599.25 768 C 692.449219 768 768 692.449219 768 599.25 L 768 168.75 C 768 75.550781 692.449219 0 599.25 0 L 168.75 0 C 75.550781 0 0 75.550781 0 168.75 Z M 0 168.75 " clip-rule="nonzero"/></clipPath></defs><g clip-path="url(#00b6a7a63a)"><rect x="-76.8" width="921.6" fill="#ed2754" y="-76.799999" height="921.599993" fill-opacity="1"/></g><g clip-path="url(#a9ccb684a5)"><g clip-path="url(#9fc4726fa2)"><g clip-path="url(#0b406e11d3)"><g clip-path="url(#420eb6e457)"><path fill="#0b0c0c" d="M 76.800781 -221.089844 L 328.53125 -221.089844 L 328.53125 691.429688 L 76.800781 691.429688 Z M 76.800781 -221.089844 " fill-opacity="1" fill-rule="nonzero"/></g></g></g></g><g clip-path="url(#d85ace9eb7)"><g clip-path="url(#c93a32ea14)"><path fill="#ffffff" d="M 529.71875 713.011719 L 400.5625 678.242188 L 460.164062 564.804688 L 609.199219 605.382812 L 540.472656 507.679688 L 475.066406 553.21875 L 388.132812 428.195312 L 484.179688 347.070312 L 577.734375 268.417969 L 705.230469 302.359375 L 644.800781 415.78125 L 505.703125 377.691406 L 566.976562 465.457031 L 631.554688 419.914062 L 685.363281 496.921875 L 677.082031 587.988281 L 644.800781 615.308594 Z M 529.71875 713.011719 " fill-opacity="1" fill-rule="nonzero"/></g></g></svg>